<svg width="288" height="253" viewBox="0 0 288 253" fill="none" xmlns="http://www.w3.org/2000/svg">
<circle cx="153" cy="91" r="60" fill="#5180EC"/>
<circle cx="182" cy="163" r="5" fill="#FAB765"/>
<circle cx="136" cy="40" r="40" fill="#FAB765"/>
<circle cx="184" cy="66" r="35" fill="#FB8194"/>
<circle cx="187" cy="14" r="5" fill="#FB8194"/>
<circle cx="73" cy="47" r="10" fill="#FB8194"/>
<circle cx="126" cy="101" r="50" fill="#7D44D3"/>
<circle cx="124" cy="165" r="5" fill="#7D44D3"/>
<circle cx="145" cy="84" r="60" fill="black"/>
<path d="M114.667 97.8333H176V55.6667H114.667V97.8333ZM149.167 105.5V113.167H164.5V120.833H126.167V113.167H141.5V105.5H110.803C110.299 105.496 109.802 105.393 109.338 105.197C108.875 105 108.454 104.714 108.101 104.356C107.748 103.997 107.469 103.572 107.28 103.105C107.091 102.639 106.996 102.139 107 101.636V51.864C107 49.7288 108.744 48 110.803 48H179.864C181.965 48 183.667 49.7212 183.667 51.8602V101.636C183.667 103.771 181.923 105.5 179.864 105.5H149.167Z" fill="white"/>
<path d="M154.031 60H135.969C131.568 60 128 63.5677 128 67.9688V86.0312C128 90.4323 131.568 94 135.969 94H154.031C158.432 94 162 90.4323 162 86.0312V67.9688C162 63.5677 158.432 60 154.031 60Z" fill="#F0DB4F"/>
<path d="M137 90.0617L139.554 88.4779C140.047 89.3731 140.495 90.1305 141.57 90.1305C142.601 90.1305 143.25 89.7174 143.25 88.1107V77.1838H146.387V88.1561C146.387 91.4846 144.483 92.9997 141.705 92.9997C139.196 92.9997 137.739 91.6683 137 90.0614M148.09 89.7173L150.644 88.2023C151.316 89.3272 152.19 90.1536 153.735 90.1536C155.035 90.1536 155.864 89.4878 155.864 88.5696C155.864 87.4678 155.012 87.0774 153.579 86.4349L152.795 86.0904C150.532 85.1035 149.031 83.8638 149.031 81.2469C149.031 78.8365 150.823 77 153.624 77C155.617 77 157.051 77.7117 158.082 79.5711L155.64 81.178C155.102 80.1909 154.52 79.8007 153.624 79.8007C152.705 79.8007 152.123 80.3976 152.123 81.178C152.123 82.142 152.705 82.5324 154.049 83.1294L154.833 83.4736C157.499 84.6445 159 85.8379 159 88.5236C159 91.4162 156.782 93 153.803 93C150.89 93 149.009 91.5768 148.09 89.7173Z" fill="#323330"/>
<path d="M13.7 216.8C10.9667 216.8 8.5 216.367 6.3 215.5C4.1 214.6 2.26667 213.3 0.8 211.6L7.15 204.1C8.08333 205.233 9 206.1 9.9 206.7C10.8 207.267 11.7333 207.55 12.7 207.55C15.2333 207.55 16.5 206.1 16.5 203.2V189.9H4.6V181H28.15V202.5C28.15 207.3 26.9167 210.883 24.45 213.25C21.9833 215.617 18.4 216.8 13.7 216.8ZM49.7609 216V211.15L48.9609 209.85V200.65C48.9609 199.317 48.5443 198.3 47.7109 197.6C46.9109 196.9 45.5943 196.55 43.7609 196.55C42.5276 196.55 41.2776 196.75 40.0109 197.15C38.7443 197.517 37.6609 198.033 36.7609 198.7L33.1609 191.25C34.7609 190.25 36.6776 189.483 38.9109 188.95C41.1443 188.417 43.3276 188.15 45.4609 188.15C50.1609 188.15 53.7943 189.2 56.3609 191.3C58.9609 193.4 60.2609 196.733 60.2609 201.3V216H49.7609ZM42.0109 216.5C39.7776 216.5 37.9109 216.117 36.4109 215.35C34.9109 214.583 33.7776 213.567 33.0109 212.3C32.2443 211 31.8609 209.567 31.8609 208C31.8609 206.233 32.3109 204.733 33.2109 203.5C34.1109 202.267 35.4776 201.333 37.3109 200.7C39.1776 200.067 41.5276 199.75 44.3609 199.75H50.0609V205.2H46.1609C44.9609 205.2 44.0776 205.4 43.5109 205.8C42.9776 206.167 42.7109 206.733 42.7109 207.5C42.7109 208.133 42.9443 208.667 43.4109 209.1C43.9109 209.5 44.5776 209.7 45.4109 209.7C46.1776 209.7 46.8776 209.5 47.5109 209.1C48.1776 208.667 48.6609 208 48.9609 207.1L50.4109 210.45C49.9776 212.483 49.0609 214 47.6609 215C46.2609 216 44.3776 216.5 42.0109 216.5ZM72.4063 216L61.4062 188.65H73.0063L81.3563 210.85H75.5063L84.4063 188.65H95.1063L84.1063 216H72.4063ZM112.407 216V211.15L111.607 209.85V200.65C111.607 199.317 111.191 198.3 110.357 197.6C109.557 196.9 108.241 196.55 106.407 196.55C105.174 196.55 103.924 196.75 102.657 197.15C101.391 197.517 100.307 198.033 99.4074 198.7L95.8074 191.25C97.4074 190.25 99.3241 189.483 101.557 188.95C103.791 188.417 105.974 188.15 108.107 188.15C112.807 188.15 116.441 189.2 119.007 191.3C121.607 193.4 122.907 196.733 122.907 201.3V216H112.407ZM104.657 216.5C102.424 216.5 100.557 216.117 99.0574 215.35C97.5574 214.583 96.4241 213.567 95.6574 212.3C94.8908 211 94.5074 209.567 94.5074 208C94.5074 206.233 94.9574 204.733 95.8574 203.5C96.7574 202.267 98.1241 201.333 99.9574 200.7C101.824 200.067 104.174 199.75 107.007 199.75H112.707V205.2H108.807C107.607 205.2 106.724 205.4 106.157 205.8C105.624 206.167 105.357 206.733 105.357 207.5C105.357 208.133 105.591 208.667 106.057 209.1C106.557 209.5 107.224 209.7 108.057 209.7C108.824 209.7 109.524 209.5 110.157 209.1C110.824 208.667 111.307 208 111.607 207.1L113.057 210.45C112.624 212.483 111.707 214 110.307 215C108.907 216 107.024 216.5 104.657 216.5ZM141.191 216.8C138.258 216.8 135.424 216.467 132.691 215.8C129.958 215.133 127.708 214.267 125.941 213.2L129.741 204.6C131.408 205.567 133.258 206.35 135.291 206.95C137.358 207.517 139.358 207.8 141.291 207.8C142.424 207.8 143.308 207.733 143.941 207.6C144.608 207.433 145.091 207.217 145.391 206.95C145.691 206.65 145.841 206.3 145.841 205.9C145.841 205.267 145.491 204.767 144.791 204.4C144.091 204.033 143.158 203.733 141.991 203.5C140.858 203.233 139.608 202.967 138.241 202.7C136.874 202.4 135.491 202.017 134.091 201.55C132.724 201.083 131.458 200.467 130.291 199.7C129.158 198.933 128.241 197.933 127.541 196.7C126.841 195.433 126.491 193.867 126.491 192C126.491 189.833 127.091 187.867 128.291 186.1C129.524 184.3 131.341 182.867 133.741 181.8C136.174 180.733 139.191 180.2 142.791 180.2C145.158 180.2 147.491 180.45 149.791 180.95C152.091 181.45 154.158 182.217 155.991 183.25L152.441 191.8C150.708 190.933 149.024 190.283 147.391 189.85C145.791 189.417 144.224 189.2 142.691 189.2C141.558 189.2 140.658 189.3 139.991 189.5C139.324 189.7 138.841 189.967 138.541 190.3C138.274 190.633 138.141 191 138.141 191.4C138.141 192 138.491 192.483 139.191 192.85C139.891 193.183 140.808 193.467 141.941 193.7C143.108 193.933 144.374 194.183 145.741 194.45C147.141 194.717 148.524 195.083 149.891 195.55C151.258 196.017 152.508 196.633 153.641 197.4C154.808 198.167 155.741 199.167 156.441 200.4C157.141 201.633 157.491 203.167 157.491 205C157.491 207.133 156.874 209.1 155.641 210.9C154.441 212.667 152.641 214.1 150.241 215.2C147.841 216.267 144.824 216.8 141.191 216.8ZM175.352 216.5C172.219 216.5 169.436 215.9 167.002 214.7C164.569 213.5 162.652 211.833 161.252 209.7C159.886 207.533 159.202 205.067 159.202 202.3C159.202 199.533 159.886 197.083 161.252 194.95C162.652 192.817 164.569 191.15 167.002 189.95C169.436 188.75 172.219 188.15 175.352 188.15C178.686 188.15 181.536 188.867 183.902 190.3C186.269 191.733 187.902 193.717 188.802 196.25L180.052 200.55C179.486 199.283 178.786 198.367 177.952 197.8C177.152 197.233 176.269 196.95 175.302 196.95C174.469 196.95 173.686 197.15 172.952 197.55C172.252 197.95 171.686 198.55 171.252 199.35C170.852 200.117 170.652 201.1 170.652 202.3C170.652 203.5 170.852 204.5 171.252 205.3C171.686 206.1 172.252 206.7 172.952 207.1C173.686 207.5 174.469 207.7 175.302 207.7C176.269 207.7 177.152 207.417 177.952 206.85C178.786 206.283 179.486 205.367 180.052 204.1L188.802 208.4C187.902 210.933 186.269 212.917 183.902 214.35C181.536 215.783 178.686 216.5 175.352 216.5ZM191.414 216V188.65H202.164V196.9L200.414 194.55C201.247 192.417 202.581 190.817 204.414 189.75C206.247 188.683 208.447 188.15 211.014 188.15V198.15C210.514 198.083 210.064 198.033 209.664 198C209.297 197.967 208.914 197.95 208.514 197.95C206.814 197.95 205.414 198.4 204.314 199.3C203.247 200.167 202.714 201.683 202.714 203.85V216H191.414ZM214.217 216V188.65H225.517V216H214.217ZM219.867 186.45C217.8 186.45 216.15 185.9 214.917 184.8C213.683 183.7 213.067 182.333 213.067 180.7C213.067 179.067 213.683 177.7 214.917 176.6C216.15 175.5 217.8 174.95 219.867 174.95C221.933 174.95 223.583 175.467 224.817 176.5C226.05 177.533 226.667 178.867 226.667 180.5C226.667 182.233 226.05 183.667 224.817 184.8C223.583 185.9 221.933 186.45 219.867 186.45ZM248.775 216.5C246.409 216.5 244.442 216 242.875 215C241.342 213.967 240.209 212.417 239.475 210.35C238.742 208.25 238.375 205.583 238.375 202.35C238.375 199.05 238.709 196.367 239.375 194.3C240.075 192.2 241.192 190.65 242.725 189.65C244.259 188.65 246.275 188.15 248.775 188.15C251.175 188.15 253.375 188.733 255.375 189.9C257.375 191.033 258.975 192.667 260.175 194.8C261.375 196.9 261.975 199.417 261.975 202.35C261.975 205.283 261.375 207.817 260.175 209.95C258.975 212.05 257.375 213.667 255.375 214.8C253.375 215.933 251.175 216.5 248.775 216.5ZM230.525 225.7V188.65H241.275V192.35L241.325 202.35L241.825 212.35V225.7H230.525ZM246.075 207.7C246.909 207.7 247.659 207.5 248.325 207.1C248.992 206.7 249.525 206.1 249.925 205.3C250.325 204.5 250.525 203.517 250.525 202.35C250.525 201.15 250.325 200.15 249.925 199.35C249.525 198.55 248.992 197.95 248.325 197.55C247.659 197.15 246.909 196.95 246.075 196.95C245.242 196.95 244.492 197.15 243.825 197.55C243.159 197.95 242.625 198.55 242.225 199.35C241.825 200.15 241.625 201.15 241.625 202.35C241.625 203.517 241.825 204.5 242.225 205.3C242.625 206.1 243.159 206.7 243.825 207.1C244.492 207.5 245.242 207.7 246.075 207.7ZM278.735 216.5C274.968 216.5 272.035 215.6 269.935 213.8C267.835 211.967 266.785 209.167 266.785 205.4V182.5H278.085V205.3C278.085 206.133 278.302 206.783 278.735 207.25C279.202 207.717 279.768 207.95 280.435 207.95C281.402 207.95 282.252 207.7 282.985 207.2L285.685 215.05C284.818 215.55 283.768 215.917 282.535 216.15C281.335 216.383 280.068 216.5 278.735 216.5ZM263.035 198.4V190.15H283.685V198.4H263.035Z" fill="white"/>
</svg>
